# xmcd
#
# Track frame offsets:
#	182
#	10172
#	23507
#	32245
#	45480
#	56747
#	69545
#	80585
#	91182
#	103955
#	117040
#	129365
#	141655
#	154310
#
# Disc length: 2209 seconds
#
# Revision: 0
# Processed by: cddbd v1.5.2PL0 Copyright (c) Steve Scherf et al.
# Submitted via: audiograbber 1.83.01
#
DISCID=b9089f0e
DTITLE=Harry Crafton - Harry Crafton
DYEAR=1990
DGENRE=Blues
TTITLE0=Get Off, Mama
TTITLE1=Let Me Tell You Baby
TTITLE2=Roly-Poly Mama
TTITLE3=I Don't Want Your Money Honey
TTITLE4=Guitar Boogie
TTITLE5=Bring That Cadillac Back
TTITLE6=It's Been a Long Time Baby
TTITLE7=It's Been a Long Time Baby
TTITLE8=Rusty Dusty
TTITLE9=In the Middle of the Night
TTITLE10=She Got a Mule King
TTITLE11=Big Fat Hot Dog
TTITLE12=So Long Baby
TTITLE13=Saturday Night Boogie
EXTD=
EXTT0=
EXTT1=
EXTT2=
EXTT3=
EXTT4=
EXTT5=
EXTT6=
EXTT7=
EXTT8=
EXTT9=
EXTT10=
EXTT11=
EXTT12=
EXTT13=
PLAYORDER=
